# xmcd
#
# Track frame offsets: 
#        150
#        19163
#        39533
#        64823
#        87466
#        103599
#        123827
#        142105
#        166375
#        186918
#        205128
#        221598
#        248673
#        267603
#
# Disc length: 3874 seconds
#
# Revision: 10
# Processed by: cddbd v1.5.2PL0 Copyright (c) Steve Scherf et al.
# Submitted via: ExactAudioCopy v1.1
#
DISCID=d10f200e
DTITLE=R.E.M. - Up
DYEAR=1998
DGENRE=Rock
TTITLE0=Airportman
TTITLE1=Lotus
TTITLE2=Suspicion
TTITLE3=Hope
TTITLE4=At My Most Beautiful
TTITLE5=The Apologist
TTITLE6=Sad Professor
TTITLE7=You're In The Air
TTITLE8=Walk Unafraid
TTITLE9=Why Not Smile
TTITLE10=Daysleeper
TTITLE11=Diminished
TTITLE12=Parakeet
TTITLE13=Falls To Climb
EXTD=9362-47112-2 ID3G:  12 YEAR: 1998
EXTT0=
EXTT1=
EXTT2=
EXTT3=
EXTT4=
EXTT5=
EXTT6=
EXTT7=
EXTT8=
EXTT9=
EXTT10=
EXTT11=
EXTT12=
EXTT13=
PLAYORDER=
